<mxfile host="65bd71144e">
    <diagram id="QmosgRDR2LgcRye5QxNB" name="Use Cases">
        <mxGraphModel dx="1155" dy="797" grid="1" gridSize="10" guides="1" tooltips="1" connect="1" arrows="1" fold="1" page="1" pageScale="1" pageWidth="850" pageHeight="1100" math="0" shadow="0">
            <root>
                <mxCell id="0"/>
                <mxCell id="1" parent="0"/>
                <mxCell id="Qe1U-yOvpPULDO2mOXiQ-1" value="Recruitment" style="ellipse;whiteSpace=wrap;html=1;fillColor=#f8cecc;strokeColor=#b85450;" parent="1" vertex="1">
                    <mxGeometry x="350" y="190" width="120" height="80" as="geometry"/>
                </mxCell>
                <mxCell id="Qe1U-yOvpPULDO2mOXiQ-2" value="Login" style="ellipse;whiteSpace=wrap;html=1;" parent="1" vertex="1">
                    <mxGeometry x="350" y="50" width="120" height="80" as="geometry"/>
                </mxCell>
                <mxCell id="Qe1U-yOvpPULDO2mOXiQ-3" value="Notification" style="ellipse;whiteSpace=wrap;html=1;" parent="1" vertex="1">
                    <mxGeometry x="350" y="330" width="120" height="80" as="geometry"/>
                </mxCell>
                <mxCell id="Qe1U-yOvpPULDO2mOXiQ-4" value="AI" style="ellipse;whiteSpace=wrap;html=1;" parent="1" vertex="1">
                    <mxGeometry x="350" y="610" width="120" height="80" as="geometry"/>
                </mxCell>
                <mxCell id="Qe1U-yOvpPULDO2mOXiQ-5" value="Analytics" style="ellipse;whiteSpace=wrap;html=1;" parent="1" vertex="1">
                    <mxGeometry x="350" y="470" width="120" height="80" as="geometry"/>
                </mxCell>
                <mxCell id="Qe1U-yOvpPULDO2mOXiQ-15" style="edgeStyle=none;html=1;exitX=1;exitY=0.3333333333333333;exitDx=0;exitDy=0;exitPerimeter=0;entryX=0;entryY=0.5;entryDx=0;entryDy=0;" parent="1" source="Qe1U-yOvpPULDO2mOXiQ-6" target="Qe1U-yOvpPULDO2mOXiQ-2" edge="1">
                    <mxGeometry relative="1" as="geometry"/>
                </mxCell>
                <mxCell id="Qe1U-yOvpPULDO2mOXiQ-18" style="edgeStyle=none;html=1;exitX=1;exitY=0.3333333333333333;exitDx=0;exitDy=0;exitPerimeter=0;entryX=0;entryY=0.5;entryDx=0;entryDy=0;" parent="1" source="Qe1U-yOvpPULDO2mOXiQ-6" target="Qe1U-yOvpPULDO2mOXiQ-1" edge="1">
                    <mxGeometry relative="1" as="geometry"/>
                </mxCell>
                <mxCell id="Qe1U-yOvpPULDO2mOXiQ-19" style="edgeStyle=none;html=1;exitX=1;exitY=0.3333333333333333;exitDx=0;exitDy=0;exitPerimeter=0;" parent="1" source="Qe1U-yOvpPULDO2mOXiQ-6" target="Qe1U-yOvpPULDO2mOXiQ-3" edge="1">
                    <mxGeometry relative="1" as="geometry"/>
                </mxCell>
                <mxCell id="Qe1U-yOvpPULDO2mOXiQ-22" style="edgeStyle=none;html=1;exitX=1;exitY=0.3333333333333333;exitDx=0;exitDy=0;exitPerimeter=0;entryX=0;entryY=0.5;entryDx=0;entryDy=0;" parent="1" source="Qe1U-yOvpPULDO2mOXiQ-6" target="Qe1U-yOvpPULDO2mOXiQ-5" edge="1">
                    <mxGeometry relative="1" as="geometry"/>
                </mxCell>
                <mxCell id="Qe1U-yOvpPULDO2mOXiQ-26" style="edgeStyle=none;html=1;exitX=1;exitY=0.3333333333333333;exitDx=0;exitDy=0;exitPerimeter=0;entryX=0;entryY=0.5;entryDx=0;entryDy=0;" parent="1" source="Qe1U-yOvpPULDO2mOXiQ-6" target="Qe1U-yOvpPULDO2mOXiQ-4" edge="1">
                    <mxGeometry relative="1" as="geometry"/>
                </mxCell>
                <mxCell id="Qe1U-yOvpPULDO2mOXiQ-6" value="Admin" style="shape=umlActor;verticalLabelPosition=bottom;verticalAlign=top;html=1;outlineConnect=0;" parent="1" vertex="1">
                    <mxGeometry x="90" y="260" width="30" height="60" as="geometry"/>
                </mxCell>
                <mxCell id="Qe1U-yOvpPULDO2mOXiQ-21" style="edgeStyle=none;html=1;exitX=1;exitY=0.3333333333333333;exitDx=0;exitDy=0;exitPerimeter=0;" parent="1" source="Qe1U-yOvpPULDO2mOXiQ-7" target="Qe1U-yOvpPULDO2mOXiQ-1" edge="1">
                    <mxGeometry relative="1" as="geometry"/>
                </mxCell>
                <mxCell id="Qe1U-yOvpPULDO2mOXiQ-7" value="candidate" style="shape=umlActor;verticalLabelPosition=bottom;verticalAlign=top;html=1;outlineConnect=0;" parent="1" vertex="1">
                    <mxGeometry x="100" y="490" width="30" height="60" as="geometry"/>
                </mxCell>
                <mxCell id="Qe1U-yOvpPULDO2mOXiQ-25" style="edgeStyle=none;html=1;exitX=0;exitY=0.3333333333333333;exitDx=0;exitDy=0;exitPerimeter=0;" parent="1" source="Qe1U-yOvpPULDO2mOXiQ-10" target="Qe1U-yOvpPULDO2mOXiQ-4" edge="1">
                    <mxGeometry relative="1" as="geometry"/>
                </mxCell>
                <mxCell id="Qe1U-yOvpPULDO2mOXiQ-10" value="AI Service" style="shape=umlActor;verticalLabelPosition=bottom;verticalAlign=top;html=1;outlineConnect=0;" parent="1" vertex="1">
                    <mxGeometry x="580" y="630" width="30" height="60" as="geometry"/>
                </mxCell>
                <mxCell id="Qe1U-yOvpPULDO2mOXiQ-17" style="edgeStyle=none;html=1;exitX=0;exitY=0.3333333333333333;exitDx=0;exitDy=0;exitPerimeter=0;entryX=1;entryY=0.5;entryDx=0;entryDy=0;" parent="1" source="Qe1U-yOvpPULDO2mOXiQ-11" target="Qe1U-yOvpPULDO2mOXiQ-1" edge="1">
                    <mxGeometry relative="1" as="geometry"/>
                </mxCell>
                <mxCell id="Qe1U-yOvpPULDO2mOXiQ-11" value="Application Service" style="shape=umlActor;verticalLabelPosition=bottom;verticalAlign=top;html=1;outlineConnect=0;" parent="1" vertex="1">
                    <mxGeometry x="580" y="210" width="30" height="60" as="geometry"/>
                </mxCell>
                <mxCell id="Qe1U-yOvpPULDO2mOXiQ-16" style="edgeStyle=none;html=1;exitX=0;exitY=0.3333333333333333;exitDx=0;exitDy=0;exitPerimeter=0;" parent="1" source="Qe1U-yOvpPULDO2mOXiQ-12" target="Qe1U-yOvpPULDO2mOXiQ-2" edge="1">
                    <mxGeometry relative="1" as="geometry"/>
                </mxCell>
                <mxCell id="Qe1U-yOvpPULDO2mOXiQ-12" value="Auth Service" style="shape=umlActor;verticalLabelPosition=bottom;verticalAlign=top;html=1;outlineConnect=0;" parent="1" vertex="1">
                    <mxGeometry x="580" y="70" width="30" height="60" as="geometry"/>
                </mxCell>
                <mxCell id="Qe1U-yOvpPULDO2mOXiQ-20" style="edgeStyle=none;html=1;exitX=0;exitY=0.3333333333333333;exitDx=0;exitDy=0;exitPerimeter=0;entryX=1;entryY=0.5;entryDx=0;entryDy=0;" parent="1" source="Qe1U-yOvpPULDO2mOXiQ-13" target="Qe1U-yOvpPULDO2mOXiQ-3" edge="1">
                    <mxGeometry relative="1" as="geometry"/>
                </mxCell>
                <mxCell id="Qe1U-yOvpPULDO2mOXiQ-13" value="Notification Service" style="shape=umlActor;verticalLabelPosition=bottom;verticalAlign=top;html=1;outlineConnect=0;" parent="1" vertex="1">
                    <mxGeometry x="580" y="350" width="30" height="60" as="geometry"/>
                </mxCell>
                <mxCell id="Qe1U-yOvpPULDO2mOXiQ-24" style="edgeStyle=none;html=1;exitX=0;exitY=0.3333333333333333;exitDx=0;exitDy=0;exitPerimeter=0;" parent="1" source="Qe1U-yOvpPULDO2mOXiQ-14" target="Qe1U-yOvpPULDO2mOXiQ-5" edge="1">
                    <mxGeometry relative="1" as="geometry"/>
                </mxCell>
                <mxCell id="Qe1U-yOvpPULDO2mOXiQ-14" value="A&lt;span style=&quot;background-color: transparent;&quot;&gt;nalytics Service&lt;/span&gt;" style="shape=umlActor;verticalLabelPosition=bottom;verticalAlign=top;html=1;outlineConnect=0;" parent="1" vertex="1">
                    <mxGeometry x="580" y="490" width="30" height="60" as="geometry"/>
                </mxCell>
                <mxCell id="jzyBd-HyLi7wHn8Ev0HC-5" value="0..n" style="text;strokeColor=none;fillColor=none;align=left;verticalAlign=middle;spacingLeft=4;spacingRight=4;overflow=hidden;points=[[0,0.5],[1,0.5]];portConstraint=eastwest;rotatable=0;whiteSpace=wrap;html=1;" parent="1" vertex="1">
                    <mxGeometry x="90" y="360" width="80" height="30" as="geometry"/>
                </mxCell>
                <mxCell id="jzyBd-HyLi7wHn8Ev0HC-6" value="0..n" style="text;strokeColor=none;fillColor=none;align=left;verticalAlign=middle;spacingLeft=4;spacingRight=4;overflow=hidden;points=[[0,0.5],[1,0.5]];portConstraint=eastwest;rotatable=0;whiteSpace=wrap;html=1;" parent="1" vertex="1">
                    <mxGeometry x="100" y="590" width="80" height="30" as="geometry"/>
                </mxCell>
            </root>
        </mxGraphModel>
    </diagram>
    <diagram id="s5NNnZgnPLFI9AhA7MTR" name="Recruietment">
        <mxGraphModel dx="2500" dy="1139" grid="1" gridSize="10" guides="1" tooltips="1" connect="1" arrows="1" fold="1" page="1" pageScale="1" pageWidth="850" pageHeight="1100" math="0" shadow="0">
            <root>
                <mxCell id="0"/>
                <mxCell id="1" parent="0"/>
                <mxCell id="c44TW1ajQ-tMi61R3Xsf-9" style="edgeStyle=none;html=1;exitX=0.5;exitY=1;exitDx=0;exitDy=0;entryX=1;entryY=0.5;entryDx=0;entryDy=0;" parent="1" source="c44TW1ajQ-tMi61R3Xsf-2" target="c44TW1ajQ-tMi61R3Xsf-4" edge="1">
                    <mxGeometry relative="1" as="geometry"/>
                </mxCell>
                <mxCell id="c44TW1ajQ-tMi61R3Xsf-10" style="edgeStyle=none;html=1;exitX=0.5;exitY=1;exitDx=0;exitDy=0;entryX=1;entryY=0;entryDx=0;entryDy=0;" parent="1" source="c44TW1ajQ-tMi61R3Xsf-2" target="c44TW1ajQ-tMi61R3Xsf-5" edge="1">
                    <mxGeometry relative="1" as="geometry"/>
                </mxCell>
                <mxCell id="c44TW1ajQ-tMi61R3Xsf-11" style="edgeStyle=none;html=1;exitX=0.5;exitY=1;exitDx=0;exitDy=0;" parent="1" source="c44TW1ajQ-tMi61R3Xsf-2" target="c44TW1ajQ-tMi61R3Xsf-6" edge="1">
                    <mxGeometry relative="1" as="geometry"/>
                </mxCell>
                <mxCell id="c44TW1ajQ-tMi61R3Xsf-12" style="edgeStyle=none;html=1;exitX=0.5;exitY=1;exitDx=0;exitDy=0;entryX=0.5;entryY=0;entryDx=0;entryDy=0;" parent="1" source="c44TW1ajQ-tMi61R3Xsf-2" target="c44TW1ajQ-tMi61R3Xsf-7" edge="1">
                    <mxGeometry relative="1" as="geometry"/>
                </mxCell>
                <mxCell id="c44TW1ajQ-tMi61R3Xsf-13" style="edgeStyle=none;html=1;exitX=0.5;exitY=1;exitDx=0;exitDy=0;" parent="1" source="c44TW1ajQ-tMi61R3Xsf-2" target="c44TW1ajQ-tMi61R3Xsf-8" edge="1">
                    <mxGeometry relative="1" as="geometry"/>
                </mxCell>
                <mxCell id="c44TW1ajQ-tMi61R3Xsf-2" value="Post A Job" style="ellipse;whiteSpace=wrap;html=1;" parent="1" vertex="1">
                    <mxGeometry x="400" y="70" width="120" height="80" as="geometry"/>
                </mxCell>
                <mxCell id="c44TW1ajQ-tMi61R3Xsf-3" value="Apply" style="ellipse;whiteSpace=wrap;html=1;" parent="1" vertex="1">
                    <mxGeometry x="370" y="480" width="120" height="80" as="geometry"/>
                </mxCell>
                <mxCell id="c44TW1ajQ-tMi61R3Xsf-4" value="Job Description" style="ellipse;whiteSpace=wrap;html=1;" parent="1" vertex="1">
                    <mxGeometry x="210" y="230" width="120" height="80" as="geometry"/>
                </mxCell>
                <mxCell id="c44TW1ajQ-tMi61R3Xsf-5" value="Candidate Form" style="ellipse;whiteSpace=wrap;html=1;" parent="1" vertex="1">
                    <mxGeometry x="220" y="330" width="120" height="80" as="geometry"/>
                </mxCell>
                <mxCell id="c44TW1ajQ-tMi61R3Xsf-6" value="Action Order" style="ellipse;whiteSpace=wrap;html=1;" parent="1" vertex="1">
                    <mxGeometry x="350" y="350" width="120" height="80" as="geometry"/>
                </mxCell>
                <mxCell id="c44TW1ajQ-tMi61R3Xsf-7" value="Team" style="ellipse;whiteSpace=wrap;html=1;" parent="1" vertex="1">
                    <mxGeometry x="490" y="340" width="120" height="80" as="geometry"/>
                </mxCell>
                <mxCell id="P4eavf4MrxW92NSNnzFh-5" style="edgeStyle=none;html=1;exitX=0.5;exitY=1;exitDx=0;exitDy=0;entryX=1;entryY=0.5;entryDx=0;entryDy=0;" parent="1" source="c44TW1ajQ-tMi61R3Xsf-8" target="P4eavf4MrxW92NSNnzFh-3" edge="1">
                    <mxGeometry relative="1" as="geometry"/>
                </mxCell>
                <mxCell id="P4eavf4MrxW92NSNnzFh-8" style="edgeStyle=none;html=1;exitX=0.5;exitY=1;exitDx=0;exitDy=0;entryX=1;entryY=0.5;entryDx=0;entryDy=0;" parent="1" source="c44TW1ajQ-tMi61R3Xsf-8" target="c44TW1ajQ-tMi61R3Xsf-3" edge="1">
                    <mxGeometry relative="1" as="geometry"/>
                </mxCell>
                <mxCell id="c44TW1ajQ-tMi61R3Xsf-8" value="Promote" style="ellipse;whiteSpace=wrap;html=1;" parent="1" vertex="1">
                    <mxGeometry x="620" y="340" width="120" height="80" as="geometry"/>
                </mxCell>
                <mxCell id="c44TW1ajQ-tMi61R3Xsf-15" style="edgeStyle=none;html=1;exitX=1;exitY=0.3333333333333333;exitDx=0;exitDy=0;exitPerimeter=0;entryX=0;entryY=0.5;entryDx=0;entryDy=0;" parent="1" source="c44TW1ajQ-tMi61R3Xsf-14" target="c44TW1ajQ-tMi61R3Xsf-3" edge="1">
                    <mxGeometry relative="1" as="geometry"/>
                </mxCell>
                <mxCell id="P4eavf4MrxW92NSNnzFh-4" style="edgeStyle=none;html=1;exitX=1;exitY=0.3333333333333333;exitDx=0;exitDy=0;exitPerimeter=0;entryX=0;entryY=0.5;entryDx=0;entryDy=0;" parent="1" source="c44TW1ajQ-tMi61R3Xsf-14" target="P4eavf4MrxW92NSNnzFh-3" edge="1">
                    <mxGeometry relative="1" as="geometry"/>
                </mxCell>
                <mxCell id="c44TW1ajQ-tMi61R3Xsf-14" value="Candidate" style="shape=umlActor;verticalLabelPosition=bottom;verticalAlign=top;html=1;outlineConnect=0;" parent="1" vertex="1">
                    <mxGeometry x="160" y="570" width="30" height="60" as="geometry"/>
                </mxCell>
                <mxCell id="c44TW1ajQ-tMi61R3Xsf-18" style="edgeStyle=none;html=1;exitX=1;exitY=0.3333333333333333;exitDx=0;exitDy=0;exitPerimeter=0;entryX=0;entryY=1;entryDx=0;entryDy=0;" parent="1" source="c44TW1ajQ-tMi61R3Xsf-16" target="c44TW1ajQ-tMi61R3Xsf-2" edge="1">
                    <mxGeometry relative="1" as="geometry"/>
                </mxCell>
                <mxCell id="c44TW1ajQ-tMi61R3Xsf-16" value="Admin" style="shape=umlActor;verticalLabelPosition=bottom;verticalAlign=top;html=1;outlineConnect=0;" parent="1" vertex="1">
                    <mxGeometry x="60" y="220" width="30" height="60" as="geometry"/>
                </mxCell>
                <mxCell id="P4eavf4MrxW92NSNnzFh-2" style="edgeStyle=none;html=1;exitX=0;exitY=0.3333333333333333;exitDx=0;exitDy=0;exitPerimeter=0;" parent="1" source="P4eavf4MrxW92NSNnzFh-1" target="c44TW1ajQ-tMi61R3Xsf-2" edge="1">
                    <mxGeometry relative="1" as="geometry"/>
                </mxCell>
                <mxCell id="P4eavf4MrxW92NSNnzFh-9" style="edgeStyle=none;html=1;exitX=0;exitY=0.3333333333333333;exitDx=0;exitDy=0;exitPerimeter=0;" parent="1" source="P4eavf4MrxW92NSNnzFh-1" target="c44TW1ajQ-tMi61R3Xsf-8" edge="1">
                    <mxGeometry relative="1" as="geometry"/>
                </mxCell>
                <mxCell id="P4eavf4MrxW92NSNnzFh-1" value="Recruitment Service" style="shape=umlActor;verticalLabelPosition=bottom;verticalAlign=top;html=1;outlineConnect=0;" parent="1" vertex="1">
                    <mxGeometry x="910" y="360" width="30" height="60" as="geometry"/>
                </mxCell>
                <mxCell id="P4eavf4MrxW92NSNnzFh-3" value="View" style="ellipse;whiteSpace=wrap;html=1;" parent="1" vertex="1">
                    <mxGeometry x="370" y="590" width="120" height="80" as="geometry"/>
                </mxCell>
                <mxCell id="2SjtAKix_7DZY73n14Wi-6" style="edgeStyle=none;html=1;exitX=0.5;exitY=1;exitDx=0;exitDy=0;entryX=0;entryY=0;entryDx=0;entryDy=0;" parent="1" source="2SjtAKix_7DZY73n14Wi-1" target="2SjtAKix_7DZY73n14Wi-5" edge="1">
                    <mxGeometry relative="1" as="geometry"/>
                </mxCell>
                <mxCell id="2SjtAKix_7DZY73n14Wi-32" style="edgeStyle=none;html=1;exitX=0.5;exitY=1;exitDx=0;exitDy=0;entryX=0.5;entryY=0;entryDx=0;entryDy=0;" parent="1" source="2SjtAKix_7DZY73n14Wi-1" target="2SjtAKix_7DZY73n14Wi-31" edge="1">
                    <mxGeometry relative="1" as="geometry"/>
                </mxCell>
                <mxCell id="7jtAyGCEqnlLohM0LxB_-8" style="edgeStyle=none;html=1;exitX=0.5;exitY=1;exitDx=0;exitDy=0;entryX=0.5;entryY=0;entryDx=0;entryDy=0;" parent="1" source="2SjtAKix_7DZY73n14Wi-1" target="2SjtAKix_7DZY73n14Wi-15" edge="1">
                    <mxGeometry relative="1" as="geometry"/>
                </mxCell>
                <mxCell id="2SjtAKix_7DZY73n14Wi-1" value="Application" style="rounded=1;whiteSpace=wrap;html=1;" parent="1" vertex="1">
                    <mxGeometry x="370" y="710" width="120" height="60" as="geometry"/>
                </mxCell>
                <mxCell id="2SjtAKix_7DZY73n14Wi-8" style="edgeStyle=none;html=1;exitX=0;exitY=1;exitDx=0;exitDy=0;entryX=1;entryY=0;entryDx=0;entryDy=0;" parent="1" source="2SjtAKix_7DZY73n14Wi-2" target="2SjtAKix_7DZY73n14Wi-3" edge="1">
                    <mxGeometry relative="1" as="geometry"/>
                </mxCell>
                <mxCell id="2SjtAKix_7DZY73n14Wi-2" value="Job" style="rounded=1;whiteSpace=wrap;html=1;" parent="1" vertex="1">
                    <mxGeometry x="150" y="840" width="120" height="60" as="geometry"/>
                </mxCell>
                <mxCell id="2SjtAKix_7DZY73n14Wi-3" value="Job Description" style="rounded=1;whiteSpace=wrap;html=1;" parent="1" vertex="1">
                    <mxGeometry x="-20" y="920" width="120" height="60" as="geometry"/>
                </mxCell>
                <mxCell id="2SjtAKix_7DZY73n14Wi-4" style="edgeStyle=none;html=1;exitX=0.5;exitY=1;exitDx=0;exitDy=0;entryX=0.981;entryY=0.131;entryDx=0;entryDy=0;entryPerimeter=0;" parent="1" source="2SjtAKix_7DZY73n14Wi-1" target="2SjtAKix_7DZY73n14Wi-2" edge="1">
                    <mxGeometry relative="1" as="geometry"/>
                </mxCell>
                <mxCell id="2SjtAKix_7DZY73n14Wi-5" value="Candidates" style="rounded=1;whiteSpace=wrap;html=1;" parent="1" vertex="1">
                    <mxGeometry x="740" y="850" width="120" height="60" as="geometry"/>
                </mxCell>
                <mxCell id="2SjtAKix_7DZY73n14Wi-7" value="Company" style="rounded=1;whiteSpace=wrap;html=1;" parent="1" vertex="1">
                    <mxGeometry x="-190" y="1000" width="120" height="60" as="geometry"/>
                </mxCell>
                <mxCell id="2SjtAKix_7DZY73n14Wi-9" value="Requirements" style="rounded=1;whiteSpace=wrap;html=1;" parent="1" vertex="1">
                    <mxGeometry x="-20" y="1050" width="120" height="60" as="geometry"/>
                </mxCell>
                <mxCell id="2SjtAKix_7DZY73n14Wi-10" style="edgeStyle=none;html=1;exitX=0;exitY=1;exitDx=0;exitDy=0;entryX=0.937;entryY=0.082;entryDx=0;entryDy=0;entryPerimeter=0;" parent="1" source="2SjtAKix_7DZY73n14Wi-3" target="2SjtAKix_7DZY73n14Wi-7" edge="1">
                    <mxGeometry relative="1" as="geometry"/>
                </mxCell>
                <mxCell id="2SjtAKix_7DZY73n14Wi-12" style="edgeStyle=none;html=1;exitX=0.5;exitY=1;exitDx=0;exitDy=0;entryX=0.5;entryY=0;entryDx=0;entryDy=0;" parent="1" source="2SjtAKix_7DZY73n14Wi-3" target="2SjtAKix_7DZY73n14Wi-9" edge="1">
                    <mxGeometry relative="1" as="geometry"/>
                </mxCell>
                <mxCell id="2SjtAKix_7DZY73n14Wi-26" style="edgeStyle=none;html=1;exitX=0.5;exitY=1;exitDx=0;exitDy=0;entryX=0.5;entryY=0;entryDx=0;entryDy=0;" parent="1" source="2SjtAKix_7DZY73n14Wi-13" target="qa436-CL6R2gEDWRgbmo-1" edge="1">
                    <mxGeometry relative="1" as="geometry">
                        <mxPoint x="220" y="1090" as="targetPoint"/>
                    </mxGeometry>
                </mxCell>
                <mxCell id="2SjtAKix_7DZY73n14Wi-13" value="Job Form" style="rounded=1;whiteSpace=wrap;html=1;" parent="1" vertex="1">
                    <mxGeometry x="160" y="960" width="120" height="60" as="geometry"/>
                </mxCell>
                <mxCell id="2SjtAKix_7DZY73n14Wi-14" style="edgeStyle=none;html=1;exitX=0.5;exitY=1;exitDx=0;exitDy=0;entryX=0.413;entryY=0;entryDx=0;entryDy=0;entryPerimeter=0;" parent="1" source="2SjtAKix_7DZY73n14Wi-2" target="2SjtAKix_7DZY73n14Wi-13" edge="1">
                    <mxGeometry relative="1" as="geometry"/>
                </mxCell>
                <mxCell id="2SjtAKix_7DZY73n14Wi-30" style="edgeStyle=none;html=1;exitX=0.5;exitY=1;exitDx=0;exitDy=0;entryX=0.5;entryY=0;entryDx=0;entryDy=0;" parent="1" source="2SjtAKix_7DZY73n14Wi-15" target="2SjtAKix_7DZY73n14Wi-27" edge="1">
                    <mxGeometry relative="1" as="geometry"/>
                </mxCell>
                <mxCell id="2SjtAKix_7DZY73n14Wi-15" value="Order" style="rounded=1;whiteSpace=wrap;html=1;" parent="1" vertex="1">
                    <mxGeometry x="350" y="850" width="120" height="60" as="geometry"/>
                </mxCell>
                <mxCell id="2SjtAKix_7DZY73n14Wi-17" value="Fileds" style="rounded=1;whiteSpace=wrap;html=1;" parent="1" vertex="1">
                    <mxGeometry x="280" y="1340" width="120" height="60" as="geometry"/>
                </mxCell>
                <mxCell id="2SjtAKix_7DZY73n14Wi-19" value="Field Type" style="rounded=1;whiteSpace=wrap;html=1;" parent="1" vertex="1">
                    <mxGeometry x="60" y="1350" width="120" height="60" as="geometry"/>
                </mxCell>
                <mxCell id="qa436-CL6R2gEDWRgbmo-4" style="edgeStyle=none;html=1;exitX=0.5;exitY=0;exitDx=0;exitDy=0;entryX=0.5;entryY=1;entryDx=0;entryDy=0;" parent="1" source="2SjtAKix_7DZY73n14Wi-21" target="qa436-CL6R2gEDWRgbmo-1" edge="1">
                    <mxGeometry relative="1" as="geometry"/>
                </mxCell>
                <mxCell id="2SjtAKix_7DZY73n14Wi-21" value="Form Fields" style="rounded=1;whiteSpace=wrap;html=1;" parent="1" vertex="1">
                    <mxGeometry x="160" y="1200" width="120" height="60" as="geometry"/>
                </mxCell>
                <mxCell id="2SjtAKix_7DZY73n14Wi-27" value="Items" style="rounded=1;whiteSpace=wrap;html=1;fillColor=#fff2cc;strokeColor=#d6b656;" parent="1" vertex="1">
                    <mxGeometry x="355" y="960" width="110" height="20" as="geometry"/>
                </mxCell>
                <mxCell id="2SjtAKix_7DZY73n14Wi-31" value="Team" style="rounded=1;whiteSpace=wrap;html=1;" parent="1" vertex="1">
                    <mxGeometry x="530" y="850" width="120" height="60" as="geometry"/>
                </mxCell>
                <mxCell id="2SjtAKix_7DZY73n14Wi-35" style="edgeStyle=none;html=1;exitX=0;exitY=0.5;exitDx=0;exitDy=0;" parent="1" source="2SjtAKix_7DZY73n14Wi-33" target="2SjtAKix_7DZY73n14Wi-5" edge="1">
                    <mxGeometry relative="1" as="geometry"/>
                </mxCell>
                <mxCell id="2SjtAKix_7DZY73n14Wi-33" value="CV" style="rounded=1;whiteSpace=wrap;html=1;" parent="1" vertex="1">
                    <mxGeometry x="930" y="850" width="120" height="60" as="geometry"/>
                </mxCell>
                <mxCell id="2SjtAKix_7DZY73n14Wi-34" value="Details" style="rounded=1;whiteSpace=wrap;html=1;" parent="1" vertex="1">
                    <mxGeometry x="960" y="890" width="120" height="60" as="geometry"/>
                </mxCell>
                <mxCell id="2SjtAKix_7DZY73n14Wi-37" style="edgeStyle=none;html=1;exitX=1;exitY=0;exitDx=0;exitDy=0;entryX=0.5;entryY=1;entryDx=0;entryDy=0;" parent="1" source="2SjtAKix_7DZY73n14Wi-36" target="2SjtAKix_7DZY73n14Wi-5" edge="1">
                    <mxGeometry relative="1" as="geometry"/>
                </mxCell>
                <mxCell id="2SjtAKix_7DZY73n14Wi-38" style="edgeStyle=none;html=1;exitX=0.5;exitY=0;exitDx=0;exitDy=0;entryX=0.5;entryY=1;entryDx=0;entryDy=0;" parent="1" source="2SjtAKix_7DZY73n14Wi-36" target="2SjtAKix_7DZY73n14Wi-31" edge="1">
                    <mxGeometry relative="1" as="geometry"/>
                </mxCell>
                <mxCell id="2SjtAKix_7DZY73n14Wi-39" style="edgeStyle=none;html=1;exitX=0;exitY=0;exitDx=0;exitDy=0;entryX=0.918;entryY=1.041;entryDx=0;entryDy=0;entryPerimeter=0;" parent="1" source="2SjtAKix_7DZY73n14Wi-36" target="2SjtAKix_7DZY73n14Wi-27" edge="1">
                    <mxGeometry relative="1" as="geometry"/>
                </mxCell>
                <mxCell id="2SjtAKix_7DZY73n14Wi-36" value="Notifications" style="rounded=1;whiteSpace=wrap;html=1;" parent="1" vertex="1">
                    <mxGeometry x="620" y="1050" width="120" height="60" as="geometry"/>
                </mxCell>
                <mxCell id="7jtAyGCEqnlLohM0LxB_-1" value="Configure Job" style="rounded=1;whiteSpace=wrap;html=1;" parent="1" vertex="1">
                    <mxGeometry x="-180" y="840" width="120" height="60" as="geometry"/>
                </mxCell>
                <mxCell id="7jtAyGCEqnlLohM0LxB_-2" style="edgeStyle=none;html=1;exitX=1;exitY=1;exitDx=0;exitDy=0;entryX=0.069;entryY=0.003;entryDx=0;entryDy=0;entryPerimeter=0;" parent="1" source="7jtAyGCEqnlLohM0LxB_-1" target="2SjtAKix_7DZY73n14Wi-3" edge="1">
                    <mxGeometry relative="1" as="geometry"/>
                </mxCell>
                <mxCell id="qa436-CL6R2gEDWRgbmo-1" value="Items" style="rounded=1;whiteSpace=wrap;html=1;fillColor=#fff2cc;strokeColor=#d6b656;" parent="1" vertex="1">
                    <mxGeometry x="165" y="1110" width="110" height="30" as="geometry"/>
                </mxCell>
                <mxCell id="qa436-CL6R2gEDWRgbmo-2" style="edgeStyle=none;html=1;exitX=1;exitY=0;exitDx=0;exitDy=0;entryX=0.375;entryY=1.043;entryDx=0;entryDy=0;entryPerimeter=0;" parent="1" source="2SjtAKix_7DZY73n14Wi-19" target="2SjtAKix_7DZY73n14Wi-21" edge="1">
                    <mxGeometry relative="1" as="geometry"/>
                </mxCell>
                <mxCell id="qa436-CL6R2gEDWRgbmo-3" style="edgeStyle=none;html=1;exitX=0;exitY=0;exitDx=0;exitDy=0;entryX=0.64;entryY=0.984;entryDx=0;entryDy=0;entryPerimeter=0;" parent="1" source="2SjtAKix_7DZY73n14Wi-17" target="2SjtAKix_7DZY73n14Wi-21" edge="1">
                    <mxGeometry relative="1" as="geometry"/>
                </mxCell>
                <mxCell id="DxtupkNg0LyVyFO9vJSQ-1" value="Application" style="rounded=1;whiteSpace=wrap;html=1;" vertex="1" parent="1">
                    <mxGeometry x="355" y="1650" width="120" height="60" as="geometry"/>
                </mxCell>
                <mxCell id="DxtupkNg0LyVyFO9vJSQ-2" value="Job" style="rounded=1;whiteSpace=wrap;html=1;" vertex="1" parent="1">
                    <mxGeometry x="670" y="1650" width="120" height="60" as="geometry"/>
                </mxCell>
                <mxCell id="DxtupkNg0LyVyFO9vJSQ-4" style="html=1;exitX=0;exitY=0.5;exitDx=0;exitDy=0;endArrow=none;endFill=0;" edge="1" parent="1" source="DxtupkNg0LyVyFO9vJSQ-3" target="DxtupkNg0LyVyFO9vJSQ-1">
                    <mxGeometry relative="1" as="geometry"/>
                </mxCell>
                <mxCell id="DxtupkNg0LyVyFO9vJSQ-5" style="edgeStyle=none;html=1;exitX=1;exitY=0.5;exitDx=0;exitDy=0;entryX=0;entryY=0.5;entryDx=0;entryDy=0;endArrow=none;endFill=0;" edge="1" parent="1" source="DxtupkNg0LyVyFO9vJSQ-3" target="DxtupkNg0LyVyFO9vJSQ-2">
                    <mxGeometry relative="1" as="geometry"/>
                </mxCell>
                <mxCell id="DxtupkNg0LyVyFO9vJSQ-3" value="has" style="shape=rhombus;perimeter=rhombusPerimeter;whiteSpace=wrap;html=1;align=center;" vertex="1" parent="1">
                    <mxGeometry x="520" y="1650" width="120" height="60" as="geometry"/>
                </mxCell>
                <mxCell id="DxtupkNg0LyVyFO9vJSQ-31" style="edgeStyle=none;html=1;exitX=0.5;exitY=1;exitDx=0;exitDy=0;" edge="1" parent="1" source="DxtupkNg0LyVyFO9vJSQ-6" target="DxtupkNg0LyVyFO9vJSQ-30">
                    <mxGeometry relative="1" as="geometry"/>
                </mxCell>
                <mxCell id="DxtupkNg0LyVyFO9vJSQ-6" value="Candidates" style="rounded=1;whiteSpace=wrap;html=1;" vertex="1" parent="1">
                    <mxGeometry x="60" y="1650" width="120" height="60" as="geometry"/>
                </mxCell>
                <mxCell id="DxtupkNg0LyVyFO9vJSQ-8" style="edgeStyle=none;html=1;exitX=1;exitY=0.5;exitDx=0;exitDy=0;endArrow=none;endFill=0;" edge="1" parent="1" source="DxtupkNg0LyVyFO9vJSQ-7" target="DxtupkNg0LyVyFO9vJSQ-1">
                    <mxGeometry relative="1" as="geometry"/>
                </mxCell>
                <mxCell id="DxtupkNg0LyVyFO9vJSQ-9" style="edgeStyle=none;html=1;exitX=0;exitY=0.5;exitDx=0;exitDy=0;endArrow=none;endFill=0;" edge="1" parent="1" source="DxtupkNg0LyVyFO9vJSQ-7" target="DxtupkNg0LyVyFO9vJSQ-6">
                    <mxGeometry relative="1" as="geometry"/>
                </mxCell>
                <mxCell id="DxtupkNg0LyVyFO9vJSQ-7" value="apply for" style="shape=rhombus;perimeter=rhombusPerimeter;whiteSpace=wrap;html=1;align=center;" vertex="1" parent="1">
                    <mxGeometry x="210" y="1650" width="120" height="60" as="geometry"/>
                </mxCell>
                <mxCell id="DxtupkNg0LyVyFO9vJSQ-10" value="Companies" style="rounded=1;whiteSpace=wrap;html=1;" vertex="1" parent="1">
                    <mxGeometry x="970" y="1650" width="120" height="60" as="geometry"/>
                </mxCell>
                <mxCell id="DxtupkNg0LyVyFO9vJSQ-11" style="edgeStyle=none;html=1;exitX=1;exitY=0.5;exitDx=0;exitDy=0;entryX=0;entryY=0.5;entryDx=0;entryDy=0;endArrow=none;endFill=0;" edge="1" source="DxtupkNg0LyVyFO9vJSQ-12" target="DxtupkNg0LyVyFO9vJSQ-10" parent="1">
                    <mxGeometry relative="1" as="geometry"/>
                </mxCell>
                <mxCell id="DxtupkNg0LyVyFO9vJSQ-13" style="edgeStyle=none;html=1;exitX=0;exitY=0.5;exitDx=0;exitDy=0;entryX=1;entryY=0.5;entryDx=0;entryDy=0;" edge="1" parent="1" source="DxtupkNg0LyVyFO9vJSQ-12" target="DxtupkNg0LyVyFO9vJSQ-2">
                    <mxGeometry relative="1" as="geometry"/>
                </mxCell>
                <mxCell id="DxtupkNg0LyVyFO9vJSQ-12" value="has" style="shape=rhombus;perimeter=rhombusPerimeter;whiteSpace=wrap;html=1;align=center;" vertex="1" parent="1">
                    <mxGeometry x="830" y="1650" width="120" height="60" as="geometry"/>
                </mxCell>
                <mxCell id="DxtupkNg0LyVyFO9vJSQ-28" style="edgeStyle=none;html=1;exitX=1;exitY=0.5;exitDx=0;exitDy=0;entryX=0;entryY=0.5;entryDx=0;entryDy=0;" edge="1" parent="1" source="DxtupkNg0LyVyFO9vJSQ-14" target="DxtupkNg0LyVyFO9vJSQ-27">
                    <mxGeometry relative="1" as="geometry"/>
                </mxCell>
                <mxCell id="DxtupkNg0LyVyFO9vJSQ-14" value="Job Description" style="rounded=1;whiteSpace=wrap;html=1;" vertex="1" parent="1">
                    <mxGeometry x="970" y="1570" width="120" height="60" as="geometry"/>
                </mxCell>
                <mxCell id="DxtupkNg0LyVyFO9vJSQ-15" style="edgeStyle=none;html=1;exitX=1;exitY=0.5;exitDx=0;exitDy=0;entryX=0;entryY=0.5;entryDx=0;entryDy=0;endArrow=none;endFill=0;" edge="1" source="DxtupkNg0LyVyFO9vJSQ-16" target="DxtupkNg0LyVyFO9vJSQ-14" parent="1">
                    <mxGeometry relative="1" as="geometry"/>
                </mxCell>
                <mxCell id="DxtupkNg0LyVyFO9vJSQ-16" value="has" style="shape=rhombus;perimeter=rhombusPerimeter;whiteSpace=wrap;html=1;align=center;" vertex="1" parent="1">
                    <mxGeometry x="830" y="1570" width="120" height="60" as="geometry"/>
                </mxCell>
                <mxCell id="DxtupkNg0LyVyFO9vJSQ-17" style="edgeStyle=none;html=1;exitX=0;exitY=0.5;exitDx=0;exitDy=0;entryX=0.992;entryY=0.15;entryDx=0;entryDy=0;entryPerimeter=0;" edge="1" parent="1" source="DxtupkNg0LyVyFO9vJSQ-16" target="DxtupkNg0LyVyFO9vJSQ-2">
                    <mxGeometry relative="1" as="geometry"/>
                </mxCell>
                <mxCell id="DxtupkNg0LyVyFO9vJSQ-18" value="Order" style="rounded=1;whiteSpace=wrap;html=1;" vertex="1" parent="1">
                    <mxGeometry x="980" y="1740" width="120" height="60" as="geometry"/>
                </mxCell>
                <mxCell id="DxtupkNg0LyVyFO9vJSQ-19" style="edgeStyle=none;html=1;exitX=1;exitY=0.5;exitDx=0;exitDy=0;entryX=0;entryY=0.5;entryDx=0;entryDy=0;endArrow=none;endFill=0;" edge="1" source="DxtupkNg0LyVyFO9vJSQ-20" target="DxtupkNg0LyVyFO9vJSQ-18" parent="1">
                    <mxGeometry relative="1" as="geometry"/>
                </mxCell>
                <mxCell id="DxtupkNg0LyVyFO9vJSQ-21" style="edgeStyle=none;html=1;exitX=0;exitY=0.5;exitDx=0;exitDy=0;entryX=1;entryY=1;entryDx=0;entryDy=0;" edge="1" parent="1" source="DxtupkNg0LyVyFO9vJSQ-20" target="DxtupkNg0LyVyFO9vJSQ-2">
                    <mxGeometry relative="1" as="geometry"/>
                </mxCell>
                <mxCell id="DxtupkNg0LyVyFO9vJSQ-20" value="has" style="shape=rhombus;perimeter=rhombusPerimeter;whiteSpace=wrap;html=1;align=center;" vertex="1" parent="1">
                    <mxGeometry x="830" y="1740" width="120" height="60" as="geometry"/>
                </mxCell>
                <mxCell id="DxtupkNg0LyVyFO9vJSQ-25" value="Requirements" style="rounded=1;whiteSpace=wrap;html=1;" vertex="1" parent="1">
                    <mxGeometry x="1340" y="1570" width="120" height="60" as="geometry"/>
                </mxCell>
                <mxCell id="DxtupkNg0LyVyFO9vJSQ-26" style="edgeStyle=none;html=1;exitX=1;exitY=0.5;exitDx=0;exitDy=0;entryX=0;entryY=0.5;entryDx=0;entryDy=0;endArrow=none;endFill=0;" edge="1" source="DxtupkNg0LyVyFO9vJSQ-27" target="DxtupkNg0LyVyFO9vJSQ-25" parent="1">
                    <mxGeometry relative="1" as="geometry"/>
                </mxCell>
                <mxCell id="DxtupkNg0LyVyFO9vJSQ-27" value="has" style="shape=rhombus;perimeter=rhombusPerimeter;whiteSpace=wrap;html=1;align=center;" vertex="1" parent="1">
                    <mxGeometry x="1160" y="1570" width="120" height="60" as="geometry"/>
                </mxCell>
                <mxCell id="DxtupkNg0LyVyFO9vJSQ-29" value="CV" style="rounded=1;whiteSpace=wrap;html=1;" vertex="1" parent="1">
                    <mxGeometry x="60" y="1850" width="120" height="60" as="geometry"/>
                </mxCell>
                <mxCell id="DxtupkNg0LyVyFO9vJSQ-32" style="edgeStyle=none;html=1;exitX=0.5;exitY=1;exitDx=0;exitDy=0;" edge="1" parent="1" source="DxtupkNg0LyVyFO9vJSQ-30" target="DxtupkNg0LyVyFO9vJSQ-29">
                    <mxGeometry relative="1" as="geometry"/>
                </mxCell>
                <mxCell id="DxtupkNg0LyVyFO9vJSQ-30" value="has" style="shape=rhombus;perimeter=rhombusPerimeter;whiteSpace=wrap;html=1;align=center;" vertex="1" parent="1">
                    <mxGeometry x="60" y="1750" width="120" height="60" as="geometry"/>
                </mxCell>
                <mxCell id="DxtupkNg0LyVyFO9vJSQ-43" style="edgeStyle=none;html=1;exitX=0.5;exitY=1;exitDx=0;exitDy=0;entryX=0.5;entryY=0;entryDx=0;entryDy=0;" edge="1" parent="1" source="DxtupkNg0LyVyFO9vJSQ-33" target="DxtupkNg0LyVyFO9vJSQ-42">
                    <mxGeometry relative="1" as="geometry"/>
                </mxCell>
                <mxCell id="DxtupkNg0LyVyFO9vJSQ-33" value="Form" style="rounded=1;whiteSpace=wrap;html=1;" vertex="1" parent="1">
                    <mxGeometry x="670" y="1822" width="120" height="60" as="geometry"/>
                </mxCell>
                <mxCell id="DxtupkNg0LyVyFO9vJSQ-34" style="edgeStyle=none;html=1;exitX=0.5;exitY=1;exitDx=0;exitDy=0;entryX=0.5;entryY=0;entryDx=0;entryDy=0;endArrow=none;endFill=0;" edge="1" source="DxtupkNg0LyVyFO9vJSQ-35" target="DxtupkNg0LyVyFO9vJSQ-33" parent="1">
                    <mxGeometry relative="1" as="geometry"/>
                </mxCell>
                <mxCell id="DxtupkNg0LyVyFO9vJSQ-36" style="edgeStyle=none;html=1;exitX=0.5;exitY=0;exitDx=0;exitDy=0;" edge="1" parent="1" source="DxtupkNg0LyVyFO9vJSQ-35" target="DxtupkNg0LyVyFO9vJSQ-2">
                    <mxGeometry relative="1" as="geometry"/>
                </mxCell>
                <mxCell id="DxtupkNg0LyVyFO9vJSQ-35" value="has" style="shape=rhombus;perimeter=rhombusPerimeter;whiteSpace=wrap;html=1;align=center;" vertex="1" parent="1">
                    <mxGeometry x="670" y="1740" width="120" height="60" as="geometry"/>
                </mxCell>
                <mxCell id="DxtupkNg0LyVyFO9vJSQ-37" value="Notifications" style="rounded=1;whiteSpace=wrap;html=1;" vertex="1" parent="1">
                    <mxGeometry x="1370" y="1740" width="120" height="60" as="geometry"/>
                </mxCell>
                <mxCell id="DxtupkNg0LyVyFO9vJSQ-39" value="Field Type" style="rounded=1;whiteSpace=wrap;html=1;" vertex="1" parent="1">
                    <mxGeometry x="670" y="2222" width="120" height="60" as="geometry"/>
                </mxCell>
                <mxCell id="DxtupkNg0LyVyFO9vJSQ-47" style="edgeStyle=none;html=1;exitX=0.5;exitY=1;exitDx=0;exitDy=0;" edge="1" parent="1" source="DxtupkNg0LyVyFO9vJSQ-40" target="DxtupkNg0LyVyFO9vJSQ-46">
                    <mxGeometry relative="1" as="geometry"/>
                </mxCell>
                <mxCell id="DxtupkNg0LyVyFO9vJSQ-40" value="Field" style="rounded=1;whiteSpace=wrap;html=1;" vertex="1" parent="1">
                    <mxGeometry x="670" y="2034" width="120" height="60" as="geometry"/>
                </mxCell>
                <mxCell id="DxtupkNg0LyVyFO9vJSQ-44" style="edgeStyle=none;html=1;exitX=0.5;exitY=1;exitDx=0;exitDy=0;entryX=0.5;entryY=0;entryDx=0;entryDy=0;" edge="1" parent="1" target="DxtupkNg0LyVyFO9vJSQ-40">
                    <mxGeometry relative="1" as="geometry">
                        <mxPoint x="730" y="1971" as="sourcePoint"/>
                    </mxGeometry>
                </mxCell>
                <mxCell id="DxtupkNg0LyVyFO9vJSQ-42" value="has" style="shape=rhombus;perimeter=rhombusPerimeter;whiteSpace=wrap;html=1;align=center;" vertex="1" parent="1">
                    <mxGeometry x="670" y="1922" width="120" height="60" as="geometry"/>
                </mxCell>
                <mxCell id="DxtupkNg0LyVyFO9vJSQ-48" style="edgeStyle=none;html=1;exitX=0.5;exitY=1;exitDx=0;exitDy=0;" edge="1" parent="1" source="DxtupkNg0LyVyFO9vJSQ-46" target="DxtupkNg0LyVyFO9vJSQ-39">
                    <mxGeometry relative="1" as="geometry"/>
                </mxCell>
                <mxCell id="DxtupkNg0LyVyFO9vJSQ-46" value="has" style="shape=rhombus;perimeter=rhombusPerimeter;whiteSpace=wrap;html=1;align=center;" vertex="1" parent="1">
                    <mxGeometry x="670" y="2132" width="120" height="60" as="geometry"/>
                </mxCell>
                <mxCell id="DxtupkNg0LyVyFO9vJSQ-51" value="Workflow" style="rounded=1;whiteSpace=wrap;html=1;" vertex="1" parent="1">
                    <mxGeometry x="1360" y="1977" width="120" height="60" as="geometry"/>
                </mxCell>
                <mxCell id="DxtupkNg0LyVyFO9vJSQ-52" value="Application" style="rounded=1;whiteSpace=wrap;html=1;" vertex="1" parent="1">
                    <mxGeometry x="355" y="1880" width="120" height="60" as="geometry"/>
                </mxCell>
                <mxCell id="DxtupkNg0LyVyFO9vJSQ-54" style="edgeStyle=none;html=1;exitX=0.5;exitY=0;exitDx=0;exitDy=0;entryX=1;entryY=0.5;entryDx=0;entryDy=0;" edge="1" parent="1" source="DxtupkNg0LyVyFO9vJSQ-53" target="DxtupkNg0LyVyFO9vJSQ-18">
                    <mxGeometry relative="1" as="geometry"/>
                </mxCell>
                <mxCell id="DxtupkNg0LyVyFO9vJSQ-55" style="edgeStyle=none;html=1;exitX=0.5;exitY=1;exitDx=0;exitDy=0;" edge="1" parent="1" source="DxtupkNg0LyVyFO9vJSQ-53" target="DxtupkNg0LyVyFO9vJSQ-51">
                    <mxGeometry relative="1" as="geometry"/>
                </mxCell>
                <mxCell id="DxtupkNg0LyVyFO9vJSQ-53" value="has" style="shape=rhombus;perimeter=rhombusPerimeter;whiteSpace=wrap;html=1;align=center;" vertex="1" parent="1">
                    <mxGeometry x="1215" y="1857" width="120" height="60" as="geometry"/>
                </mxCell>
            </root>
        </mxGraphModel>
    </diagram>
    <diagram id="zR-pArUtok41MXdQ3gLI" name="Front end">
        <mxGraphModel dx="1177" dy="797" grid="1" gridSize="10" guides="1" tooltips="1" connect="1" arrows="1" fold="1" page="1" pageScale="1" pageWidth="850" pageHeight="1100" math="0" shadow="0">
            <root>
                <mxCell id="0"/>
                <mxCell id="1" parent="0"/>
                <mxCell id="_gC_zOsvwQQS31igSf-x-1" value="Profile and Settings" style="rounded=1;whiteSpace=wrap;html=1;" parent="1" vertex="1">
                    <mxGeometry x="360" y="180" width="120" height="60" as="geometry"/>
                </mxCell>
                <mxCell id="_gC_zOsvwQQS31igSf-x-2" value="Recruietment" style="rounded=1;whiteSpace=wrap;html=1;" parent="1" vertex="1">
                    <mxGeometry x="360" y="300" width="120" height="60" as="geometry"/>
                </mxCell>
                <mxCell id="_gC_zOsvwQQS31igSf-x-3" value="Apply" style="rounded=1;whiteSpace=wrap;html=1;" parent="1" vertex="1">
                    <mxGeometry x="360" y="430" width="120" height="60" as="geometry"/>
                </mxCell>
                <mxCell id="_gC_zOsvwQQS31igSf-x-4" value="Post" style="rounded=1;whiteSpace=wrap;html=1;" parent="1" vertex="1">
                    <mxGeometry x="360" y="560" width="120" height="60" as="geometry"/>
                </mxCell>
                <mxCell id="_gC_zOsvwQQS31igSf-x-5" value="Dashbo&lt;span style=&quot;background-color: transparent;&quot;&gt;ard&lt;/span&gt;" style="rounded=1;whiteSpace=wrap;html=1;" parent="1" vertex="1">
                    <mxGeometry x="360" y="80" width="120" height="60" as="geometry"/>
                </mxCell>
            </root>
        </mxGraphModel>
    </diagram>
    <diagram id="7OMX2BLXeM8r2H0rM-J8" name="Page-4">
        <mxGraphModel dx="1177" dy="797" grid="1" gridSize="10" guides="1" tooltips="1" connect="1" arrows="1" fold="1" page="1" pageScale="1" pageWidth="850" pageHeight="1100" math="0" shadow="0">
            <root>
                <mxCell id="0"/>
                <mxCell id="1" parent="0"/>
            </root>
        </mxGraphModel>
    </diagram>
</mxfile>